<?xml version="1.0" encoding="UTF-8"?><svg id="Layer_2" xmlns="http://www.w3.org/2000/svg" width="613.58" height="127" viewBox="0 0 613.58 127"><defs><style>.cls-1{fill:#fff;stroke-width:0px;}</style></defs><g id="Layer_1-2"><path class="cls-1" d="m222.52,24.97v20.39h-58.94v-20.39h58.94ZM176.96,1.52h27.14v91.25c0,2.51.38,4.45,1.15,5.83s1.84,2.35,3.22,2.9,2.98.83,4.81.83c1.28,0,2.55-.12,3.82-.35s2.25-.42,2.93-.54l4.27,20.2c-1.36.43-3.27.92-5.74,1.5-2.46.57-5.46.92-8.98,1.05-6.54.26-12.27-.62-17.17-2.61-4.91-2-8.72-5.1-11.44-9.3-2.72-4.2-4.06-9.51-4.01-15.93V1.52Z"/><path class="cls-1" d="m268.08,124.7c-6.25,0-11.81-1.09-16.69-3.28-4.89-2.19-8.74-5.44-11.57-9.75-2.83-4.31-4.24-9.7-4.24-16.15,0-5.44,1-10,2.99-13.7,2-3.7,4.72-6.67,8.16-8.92,3.44-2.25,7.36-3.95,11.76-5.1,4.4-1.15,9.02-1.95,13.86-2.42,5.69-.59,10.28-1.16,13.76-1.69,3.48-.53,6.01-1.33,7.58-2.39s2.36-2.63,2.36-4.72v-.38c0-4.04-1.27-7.16-3.79-9.37s-6.11-3.31-10.74-3.31c-4.89,0-8.77,1.07-11.66,3.22s-4.8,4.83-5.73,8.06l-25.11-2.04c1.28-5.95,3.78-11.1,7.52-15.45,3.74-4.35,8.57-7.71,14.5-10.07,5.93-2.36,12.8-3.54,20.61-3.54,5.44,0,10.65.64,15.64,1.91,4.99,1.27,9.43,3.25,13.32,5.93,3.89,2.68,6.95,6.11,9.21,10.29,2.25,4.19,3.38,9.19,3.38,15.01v66.02h-25.74v-13.57h-.76c-1.57,3.06-3.67,5.75-6.31,8.06-2.63,2.32-5.8,4.12-9.49,5.42-3.7,1.3-7.97,1.94-12.81,1.94Zm7.77-18.73c3.99,0,7.52-.8,10.58-2.39,3.06-1.59,5.46-3.75,7.2-6.47,1.74-2.72,2.61-5.8,2.61-9.24v-10.39c-.85.55-2.01,1.05-3.47,1.5s-3.11.85-4.94,1.21c-1.83.36-3.66.68-5.48.96-1.83.28-3.48.52-4.97.73-3.19.47-5.97,1.21-8.35,2.23-2.38,1.02-4.23,2.39-5.54,4.11-1.32,1.72-1.97,3.86-1.97,6.4,0,3.7,1.35,6.51,4.05,8.44,2.7,1.93,6.13,2.9,10.29,2.9Z"/><path class="cls-1" d="m343.78,122.85v-16.19l47.92-59.32v-.7h-46.26v-21.67h78.95v17.65l-44.99,57.86v.7h46.65v21.67h-82.27Z"/><path class="cls-1" d="m488.3,124.76c-9.9,0-18.45-2.11-25.65-6.34-7.2-4.23-12.76-10.13-16.66-17.72-3.91-7.58-5.86-16.39-5.86-26.41s1.95-18.96,5.86-26.54c3.91-7.58,9.46-13.49,16.66-17.71,7.2-4.23,15.75-6.34,25.65-6.34s18.45,2.11,25.65,6.34c7.2,4.23,12.75,10.13,16.66,17.71,3.91,7.58,5.86,16.43,5.86,26.54s-1.95,18.83-5.86,26.41c-3.91,7.58-9.46,13.49-16.66,17.72-7.2,4.23-15.75,6.34-25.65,6.34Zm.13-21.03c4.5,0,8.26-1.28,11.28-3.86,3.02-2.57,5.3-6.09,6.85-10.55,1.55-4.46,2.33-9.54,2.33-15.23s-.78-10.77-2.33-15.23c-1.55-4.46-3.83-7.99-6.85-10.58-3.02-2.59-6.78-3.89-11.28-3.89s-8.36,1.3-11.44,3.89c-3.08,2.59-5.4,6.12-6.95,10.58-1.55,4.46-2.33,9.54-2.33,15.23s.78,10.77,2.33,15.23c1.55,4.46,3.86,7.98,6.95,10.55,3.08,2.57,6.89,3.86,11.44,3.86Z"/><path class="cls-1" d="m554.19,122.85V24.97h26.32v17.08h1.02c1.78-6.07,4.78-10.67,8.98-13.8,4.21-3.12,9.05-4.68,14.53-4.68,1.36,0,2.82.09,4.4.25,1.57.17,2.95.4,4.14.7v24.09c-1.27-.38-3.04-.72-5.29-1.02-2.25-.3-4.31-.45-6.18-.45-3.99,0-7.55.86-10.67,2.58-3.12,1.72-5.59,4.11-7.39,7.17-1.81,3.06-2.71,6.59-2.71,10.58v55.37h-27.15Z"/><polygon class="cls-1" points="35.69 127 77.4 127 77.4 78.45 35.69 119.11 35.69 127"/><polygon class="cls-1" points="0 0 0 33.79 35.69 33.79 35.69 73.47 77.4 31.76 109.16 0 0 0"/></g></svg>